<?xml version="1.0" encoding="UTF-8"?><svg xmlns="http://www.w3.org/2000/svg" xmlns:xlink="http://www.w3.org/1999/xlink" width="375" zoomAndPan="magnify" viewBox="0 0 375 374.999991" height="374.999991" preserveAspectRatio="xMidYMid meet" version="1.0"><path fill="rgb(58.81958%, 9.408569%, 20.779419%)" d="M 187.5 62.5 C 250.902344 62.5 303.296875 109.984375 311.304688 171.238281 L 304.417969 164.332031 L 295.582031 173.167969 L 314.332031 191.917969 C 315.550781 193.140625 317.136719 193.75 318.75 193.75 C 320.359375 193.75 321.949219 193.140625 323.167969 191.917969 L 341.917969 173.167969 L 333.082031 164.332031 L 324.242188 173.167969 C 317.066406 104.050781 258.472656 50 187.5 50 C 169.335938 50 151.683594 53.492188 135.035156 60.375 L 139.792969 71.921875 C 154.929688 65.671875 170.972656 62.5 187.5 62.5 " fill-opacity="1" fill-rule="nonzero"/><path fill="rgb(58.81958%, 9.408569%, 20.779419%)" d="M 312.5 306.25 C 322.851562 306.25 331.25 314.648438 331.25 325 C 331.25 333.128906 326 340.015625 318.75 342.601562 L 318.75 350 L 306.25 350 L 306.25 342.601562 C 299 340.015625 293.75 333.128906 293.75 325 L 306.25 325 C 306.25 328.441406 309.058594 331.25 312.5 331.25 C 315.941406 331.25 318.75 328.441406 318.75 325 C 318.75 321.558594 315.941406 318.75 312.5 318.75 C 302.148438 318.75 293.75 310.351562 293.75 300 C 293.75 291.871094 299 284.984375 306.25 282.398438 L 306.25 275 L 318.75 275 L 318.75 282.398438 C 326 284.984375 331.25 291.871094 331.25 300 L 318.75 300 C 318.75 296.558594 315.941406 293.75 312.5 293.75 C 309.058594 293.75 306.25 296.558594 306.25 300 C 306.25 303.441406 309.058594 306.25 312.5 306.25 Z M 105.640625 342.113281 C 106.003906 340.625 106.25 339.109375 106.25 337.5 C 106.25 327.125 97.875 318.75 87.5 318.75 C 83.277344 318.75 79.46875 320.238281 76.367188 322.582031 C 37.378906 290.453125 12.5 241.820312 12.5 187.5 C 12.5 157.105469 20.386719 128.539062 34.105469 103.589844 C 42.164062 109.203125 51.953125 112.5 62.5 112.5 C 90.0625 112.5 112.5 90.0625 112.5 62.5 C 112.5 51.953125 109.203125 42.164062 103.589844 34.105469 C 128.539062 20.386719 157.105469 12.5 187.5 12.5 C 217.066406 12.5 244.921875 19.898438 269.359375 32.886719 C 268.992188 34.375 268.75 35.886719 268.75 37.5 C 268.75 47.875 277.125 56.25 287.5 56.25 C 291.722656 56.25 295.53125 54.761719 298.632812 52.417969 C 337.621094 84.546875 362.5 133.179688 362.5 187.5 C 362.5 217.894531 354.613281 246.460938 340.894531 271.410156 C 332.835938 265.796875 323.046875 262.5 312.5 262.5 C 284.9375 262.5 262.5 284.9375 262.5 312.5 C 262.5 323.046875 265.796875 332.835938 271.410156 340.894531 C 246.460938 354.613281 217.894531 362.5 187.5 362.5 C 157.933594 362.5 130.078125 355.101562 105.640625 342.113281 Z M 62.5 68.75 C 52.148438 68.75 43.75 60.351562 43.75 50 C 43.75 41.871094 49 34.984375 56.25 32.398438 L 56.25 25 L 68.75 25 L 68.75 32.398438 C 76 34.984375 81.25 41.871094 81.25 50 L 68.75 50 C 68.75 46.558594 65.941406 43.75 62.5 43.75 C 59.058594 43.75 56.25 46.558594 56.25 50 C 56.25 53.441406 59.058594 56.25 62.5 56.25 C 72.851562 56.25 81.25 64.648438 81.25 75 C 81.25 83.128906 76 90.015625 68.75 92.601562 L 68.75 100 L 56.25 100 L 56.25 92.601562 C 49 90.015625 43.75 83.128906 43.75 75 L 56.25 75 C 56.25 78.441406 59.058594 81.25 62.5 81.25 C 65.941406 81.25 68.75 78.441406 68.75 75 C 68.75 71.558594 65.941406 68.75 62.5 68.75 Z M 375 187.5 C 375 128.855469 347.925781 76.441406 305.640625 42.039062 C 306.003906 40.574219 306.25 39.0625 306.25 37.5 C 306.25 27.125 297.875 18.75 287.5 18.75 C 283.347656 18.75 279.566406 20.214844 276.464844 22.484375 C 249.976562 8.15625 219.675781 0 187.5 0 C 153.882812 0 122.339844 8.984375 95.042969 24.609375 C 86.277344 17.089844 74.925781 12.5 62.5 12.5 C 34.9375 12.5 12.5 34.9375 12.5 62.5 C 12.5 74.925781 17.089844 86.277344 24.609375 95.042969 C 8.984375 122.339844 0 153.882812 0 187.5 C 0 246.140625 27.074219 298.558594 69.359375 332.957031 C 68.992188 334.421875 68.75 335.9375 68.75 337.5 C 68.75 347.875 77.125 356.25 87.5 356.25 C 91.648438 356.25 95.433594 354.785156 98.535156 352.515625 C 125.023438 366.84375 155.320312 375 187.5 375 C 221.117188 375 252.660156 366.015625 279.957031 350.390625 C 288.71875 357.910156 300.074219 362.5 312.5 362.5 C 340.0625 362.5 362.5 340.0625 362.5 312.5 C 362.5 300.074219 357.910156 288.71875 350.390625 279.957031 C 366.015625 252.660156 375 221.117188 375 187.5 " fill-opacity="1" fill-rule="nonzero"/><path fill="rgb(58.81958%, 9.408569%, 20.779419%)" d="M 187.5 312.5 C 118.578125 312.5 62.5 256.421875 62.5 187.5 C 62.5 171.019531 65.648438 154.980469 71.898438 139.890625 L 60.328125 135.105469 C 53.464844 151.757812 50 169.359375 50 187.5 C 50 263.328125 111.667969 325 187.5 325 C 196.191406 325 204.90625 324.167969 213.378906 322.558594 L 211.058594 310.277344 C 203.320312 311.765625 195.410156 312.5 187.5 312.5 " fill-opacity="1" fill-rule="nonzero"/><path fill="rgb(58.81958%, 9.408569%, 20.779419%)" d="M 223.316406 307.300781 L 226.902344 319.261719 C 231.199219 317.992188 235.449219 316.480469 239.527344 314.820312 L 234.789062 303.246094 C 231.078125 304.761719 227.222656 306.128906 223.316406 307.300781 " fill-opacity="1" fill-rule="nonzero"/><path fill="rgb(58.81958%, 9.408569%, 20.779419%)" d="M 166.917969 179.417969 L 154.417969 191.917969 L 145.582031 183.082031 L 156.25 172.410156 L 156.25 156.25 L 168.75 156.25 L 168.75 175 C 168.75 176.660156 168.089844 178.246094 166.917969 179.417969 Z M 156.25 215.085938 L 156.25 225 L 143.75 225 L 143.75 212.5 C 143.75 210.839844 144.410156 209.253906 145.582031 208.082031 L 151.832031 201.832031 L 160.667969 210.667969 Z M 166.917969 241.917969 L 157.152344 251.683594 L 160.742188 262.5 L 172.410156 262.5 L 181.25 253.660156 L 181.25 121.335938 L 172.410156 112.5 L 160.742188 112.5 L 157.152344 123.316406 L 166.917969 133.082031 C 168.089844 134.253906 168.75 135.839844 168.75 137.5 L 168.75 143.75 L 156.25 143.75 L 156.25 140.085938 L 147.410156 131.25 L 133.835938 131.25 L 125 140.085938 L 125 159.910156 L 135.667969 170.582031 C 136.839844 171.753906 137.5 173.339844 137.5 175 L 137.5 181.25 L 125 181.25 L 125 177.585938 L 119.726562 172.3125 L 112.5 183.128906 L 112.5 209.910156 L 118.75 216.160156 L 118.75 206.25 L 131.25 206.25 L 131.25 238.867188 L 148.09375 243.089844 L 156.25 234.910156 L 156.25 231.25 L 168.75 231.25 L 168.75 237.5 C 168.75 239.160156 168.089844 240.746094 166.917969 241.917969 " fill-opacity="1" fill-rule="nonzero"/><path fill="rgb(58.81958%, 9.408569%, 20.779419%)" d="M 231.25 225 L 218.75 225 L 218.75 215.085938 L 214.332031 210.667969 L 223.167969 201.832031 L 229.417969 208.082031 C 230.589844 209.253906 231.25 210.839844 231.25 212.5 Z M 206.25 175 L 206.25 156.25 L 218.75 156.25 L 218.75 172.410156 L 229.417969 183.082031 L 220.582031 191.917969 L 208.082031 179.417969 C 206.910156 178.246094 206.25 176.660156 206.25 175 Z M 262.5 209.910156 L 262.5 183.128906 L 255.273438 172.3125 L 250 177.585938 L 250 181.25 L 237.5 181.25 L 237.5 175 C 237.5 173.339844 238.160156 171.753906 239.332031 170.582031 L 250 159.910156 L 250 140.085938 L 241.160156 131.25 L 227.585938 131.25 L 218.75 140.085938 L 218.75 143.75 L 206.25 143.75 L 206.25 137.5 C 206.25 135.839844 206.910156 134.253906 208.082031 133.082031 L 217.847656 123.316406 L 214.257812 112.5 L 202.585938 112.5 L 193.75 121.335938 L 193.75 253.660156 L 202.585938 262.5 L 214.257812 262.5 L 217.847656 251.683594 L 208.082031 241.917969 C 206.910156 240.746094 206.25 239.160156 206.25 237.5 L 206.25 231.25 L 218.75 231.25 L 218.75 234.910156 L 226.902344 243.089844 L 243.75 238.867188 L 243.75 206.25 L 256.25 206.25 L 256.25 216.160156 L 262.5 209.910156 " fill-opacity="1" fill-rule="nonzero"/></svg>