<?xml version="1.0" encoding="UTF-8"?><svg xmlns="http://www.w3.org/2000/svg" xmlns:xlink="http://www.w3.org/1999/xlink" width="375" zoomAndPan="magnify" viewBox="0 0 375 374.999991" height="374.999991" preserveAspectRatio="xMidYMid meet" version="1.0"><path fill="rgb(58.81958%, 9.408569%, 20.779419%)" d="M 343.75 50 L 312.5 50 L 312.5 25 C 312.5 11.210938 301.289062 0 287.5 0 C 273.710938 0 262.5 11.210938 262.5 25 L 262.5 50 L 112.5 50 L 112.5 25 C 112.5 11.210938 101.289062 0 87.5 0 C 73.710938 0 62.5 11.210938 62.5 25 L 62.5 50 L 31.25 50 C 14.019531 50 0 64.019531 0 81.25 L 0 343.75 C 0 360.980469 14.019531 375 31.25 375 L 343.75 375 C 360.980469 375 375 360.980469 375 343.75 L 375 81.25 C 375 64.019531 360.980469 50 343.75 50 Z M 275 25 C 275 18.105469 280.605469 12.5 287.5 12.5 C 294.394531 12.5 300 18.105469 300 25 L 300 75 C 300 81.894531 294.394531 87.5 287.5 87.5 C 280.605469 87.5 275 81.894531 275 75 Z M 75 25 C 75 18.105469 80.605469 12.5 87.5 12.5 C 94.394531 12.5 100 18.105469 100 25 L 100 75 C 100 81.894531 94.394531 87.5 87.5 87.5 C 80.605469 87.5 75 81.894531 75 75 Z M 31.25 62.5 L 62.5 62.5 L 62.5 75 C 62.5 88.789062 73.710938 100 87.5 100 C 101.289062 100 112.5 88.789062 112.5 75 L 112.5 62.5 L 262.5 62.5 L 262.5 75 C 262.5 88.789062 273.710938 100 287.5 100 C 301.289062 100 312.5 88.789062 312.5 75 L 312.5 62.5 L 343.75 62.5 C 354.085938 62.5 362.5 70.914062 362.5 81.25 L 362.5 125 L 12.5 125 L 12.5 81.25 C 12.5 70.914062 20.914062 62.5 31.25 62.5 Z M 343.75 362.5 L 31.25 362.5 C 20.914062 362.5 12.5 354.085938 12.5 343.75 L 12.5 137.5 L 362.5 137.5 L 362.5 343.75 C 362.5 354.085938 354.085938 362.5 343.75 362.5 Z M 343.75 362.5 " fill-opacity="1" fill-rule="nonzero"/><path fill="rgb(58.81958%, 9.408569%, 20.779419%)" d="M 181.25 100 L 193.75 100 L 193.75 112.5 L 181.25 112.5 Z M 181.25 100 " fill-opacity="1" fill-rule="nonzero"/><path fill="rgb(58.81958%, 9.408569%, 20.779419%)" d="M 206.25 100 L 218.75 100 L 218.75 112.5 L 206.25 112.5 Z M 206.25 100 " fill-opacity="1" fill-rule="nonzero"/><path fill="rgb(58.81958%, 9.408569%, 20.779419%)" d="M 156.25 100 L 168.75 100 L 168.75 112.5 L 156.25 112.5 Z M 156.25 100 " fill-opacity="1" fill-rule="nonzero"/><path fill="rgb(58.81958%, 9.408569%, 20.779419%)" d="M 181.25 337.5 C 141.261719 337.5 106.707031 310.054688 96.773438 272.179688 L 123.023438 280.929688 L 126.980469 269.074219 L 89.480469 256.574219 C 87.230469 255.824219 84.757812 256.414062 83.085938 258.085938 L 58.085938 283.085938 L 66.925781 291.925781 L 84.4375 274.414062 C 95.457031 318.1875 135.210938 350 181.25 350 C 231.101562 350 273.664062 312.738281 280.269531 263.324219 L 267.882812 261.667969 C 262.101562 304.898438 224.863281 337.5 181.25 337.5 Z M 181.25 337.5 " fill-opacity="1" fill-rule="nonzero"/><path fill="rgb(58.81958%, 9.408569%, 20.779419%)" d="M 278.070312 225.59375 C 267.042969 181.8125 227.289062 150 181.25 150 C 131.398438 150 88.835938 187.261719 82.230469 236.675781 L 94.617188 238.332031 C 100.398438 195.101562 137.636719 162.5 181.25 162.5 C 221.238281 162.5 255.792969 189.945312 265.726562 227.820312 L 239.476562 219.070312 L 235.519531 230.925781 L 273.019531 243.425781 C 273.667969 243.644531 274.34375 243.75 275 243.75 C 276.632812 243.75 278.230469 243.105469 279.417969 241.917969 L 304.417969 216.917969 L 295.582031 208.082031 Z M 278.070312 225.59375 " fill-opacity="1" fill-rule="nonzero"/><path fill="rgb(58.81958%, 9.408569%, 20.779419%)" d="M 179.417969 279.417969 L 223.167969 235.667969 L 214.332031 226.832031 L 175 266.164062 L 160.667969 251.832031 L 151.832031 260.667969 L 170.582031 279.417969 C 171.800781 280.636719 173.398438 281.25 175 281.25 C 176.601562 281.25 178.199219 280.636719 179.417969 279.417969 Z M 179.417969 279.417969 " fill-opacity="1" fill-rule="nonzero"/></svg>