<?xml version="1.0" encoding="utf-8"?>
<!-- Generator: Adobe Illustrator 21.0.0, SVG Export Plug-In . SVG Version: 6.00 Build 0)  -->
<svg version="1.1" id="Layer" xmlns="http://www.w3.org/2000/svg" xmlns:xlink="http://www.w3.org/1999/xlink" x="0px" y="0px"
	 viewBox="0 0 609.4 125" style="enable-background:new 0 0 609.4 125;" xml:space="preserve">
<style type="text/css">
	.st0{fill-rule:evenodd;clip-rule:evenodd;fill:#274F9C;}
	.st1{fill-rule:evenodd;clip-rule:evenodd;fill:#212121;}
	.st2{fill-rule:evenodd;clip-rule:evenodd;fill:#FF6907;}
</style>
<path class="st0" d="M305,76.5c-21.3,0-38.2-15.1-38.2-37.8c0-22.6,15.4-38.3,38.3-38.3c5.3,0,13.2,0.4,19.3,4.2v16.3
	c-6.6-4.1-11.8-5.1-18.4-5.1c-11.4,0-21,8.5-21,22.9c0,14,9.1,22.3,21.7,22.3c5.8,0,12.8-1.8,17.7-5.3v16.6
	C318.3,76.1,310.3,76.5,305,76.5z M367.4,15.6c-11,0-17.9,8.8-17.9,22.7c0,13.9,6.9,22.7,17.9,22.7c11,0,18-8.8,18-22.7
	C385.4,24.4,378.4,15.6,367.4,15.6z M367.4,76.4c-22.1,0-36.1-15.3-36.1-38.1c0-22.7,14.1-38.1,36.1-38.1
	c22.1,0,36.1,15.3,36.1,38.1C403.5,61,389.4,76.4,367.4,76.4z M410.8,1.4h45.7v13.6h-28.6v16.8h25.5v13.4h-25.5v16.8h29.1v13.5
	h-46.1V1.4z M511.9,75.6l-13.4-23.1c-4.3,7.9-8.7,15.4-13,23.1H465l23.4-37.7L466.1,1.4h19.7l12.3,21.7c3.9-7.3,7.9-14.5,11.8-21.7
	h20.7l-22.5,36.7l23.9,37.6H511.9z M573.2,15.6c-11,0-17.9,8.8-17.9,22.7c0,13.9,6.9,22.7,17.9,22.7s18-8.8,18-22.7
	C591.2,24.4,584.2,15.6,573.2,15.6z M573.2,76.4c-22.1,0-36.1-15.3-36.1-38.1c0-22.7,14.1-38.1,36.1-38.1
	c22.1,0,36.1,15.3,36.1,38.1C609.3,61,595.3,76.4,573.2,76.4z"/>
<path class="st1" d="M267.3,95.2h4.6v25.4h12.3v4h-16.9V95.2z M300.8,125c-6.9,0-11.3-3.8-11.3-11.3V95.2h4.6v18.4
	c0,5.3,3,7.2,6.7,7.2c3.9,0,6.8-1.9,6.8-7.4V95.2h4.6v18.1C312.2,121.1,307.8,125,300.8,125z M335.9,124.6l-7.1-11
	c-0.8,1.4-6.1,9.7-6.8,11h-5.5l9.6-14.9L317,95.2h5.3l6.4,10.5c0.7-1.3,5.6-9.3,6.3-10.5h5.5l-9.1,14.6l9.9,14.8H335.9z M358,125
	c-6.9,0-11.3-3.8-11.3-11.3V95.2h4.6v18.4c0,5.3,3,7.2,6.7,7.2c3.9,0,6.8-1.9,6.8-7.4V95.2h4.6v18.1C369.4,121.1,365,125,358,125z
	 M389.9,104.3c0-3.5-2-5.4-6-5.4H380v10.7h4.1C388.1,109.7,389.9,107.4,389.9,104.3z M391,124.6l-7-11.2h-4v11.2h-4.6V95.2h8.4
	c7,0,10.8,3.6,10.8,9.2c-0.1,4.2-2.3,7.1-5.9,8.4l7.8,11.9H391z M413.4,124.6h-4.6v-10.9l-10.1-18.4h5.3l2.1,4.3
	c4.6,9.2,5,10.5,5,10.5s0.4-1.3,5.2-10.5l2.2-4.3h5.3l-10.3,18.4V124.6z M453.5,104.3c0-3.5-2-5.4-6-5.4h-3.9v10.7h4.1
	C451.7,109.7,453.5,107.4,453.5,104.3z M454.6,124.6l-7-11.2h-4v11.2H439V95.2h8.4c7,0,10.8,3.6,10.8,9.2c-0.1,4.2-2.3,7.1-5.9,8.4
	l7.8,11.9H454.6z M464.4,95.2h17.1v3.8H469v9.1h11.1v3.7H469v9.1h12.7v3.8h-17.3V95.2z M497.6,112.3c-4.5-7.4-6.7-11.8-6.7-11.8
	s0.4,4.4,0.4,11.7v12.3h-4.6V95.2h5.4l7.4,12.3c4.6,7.8,6.6,11.7,6.6,11.7s-0.3-4-0.3-11.6V95.2h4.6v29.4H505L497.6,112.3z
	 M528.6,124.6H524V98.9h-7.8v-3.8h20.3v3.8h-7.9V124.6z M556.5,112.2c-3.8-11.6-4.3-13.6-4.3-13.6s-0.5,2-4.4,13.6l-0.5,1.5h9.6
	L556.5,112.2z M558.2,117.4h-12.1l-2.4,7.2h-4.9l10.4-29.4h6l10.2,29.4h-4.9L558.2,117.4z M569.3,95.2h4.6v25.4h12.3v4h-16.9V95.2z
	 M601,99c-3.3,0-5.3,1.6-5.3,3.9c0,2.6,2.6,3.8,5.6,5.1c3.8,1.6,8,3.5,8,8.6c0,5.3-4.3,8.3-10.1,8.3c-2.9,0-6-0.6-8.2-1.9v-4.7
	c2.3,1.6,5.2,2.6,8.2,2.6c3.2,0,5.3-1.5,5.3-4.2c0-2.5-2.5-3.7-5.6-5c-3.7-1.7-8-3.5-8-8.6c0-5.1,4.2-8.1,10-8.1
	c2.3,0,4.9,0.4,6.9,1.4v4.4C606,99.7,603.4,99,601,99z"/>
<path class="st2" d="M121.7,79.9c-4.7,4.5-4.7,12.7-0.8,17.7c0.6,0.3,1.1,0.6,1.7,0.9c-3.4,0.2-5-3.5-5.7-6.2
	c-0.7-3.9-0.6-8.3,1.5-11.8c1-1.2,2.2-2.8,4-2.4c1.8,0,2.8,1.7,4,2.8C125,80.1,123.3,79.7,121.7,79.9z M220.1,80.5
	c-15.5,0.8-31,2.5-46.6,2.4c-1.2,2.7-2.1,5.6-2.2,8.6c15.4-0.5,30.8-1.6,46.2-3.4c4.9-0.8,9.9-1.2,14.5-3.1c0.5-1.8,0.8-3.7,1.1-5.6
	C228.9,80.2,224.5,79.9,220.1,80.5z M224.3,55.8c-1.2-0.1-2.3,0.4-3.4,0.6c-1.1,3.1-2.1,6.3-2.6,9.5c3.7-0.2,7.5,0.3,11.1-0.5
	C229.7,61.5,227.5,57.8,224.3,55.8z M200,56.3c-5.6,0.1-11.1,0.8-16.7,0.9c0.4,0.8,0.8,1.6,1.1,2.5c11.1,0,22.1-0.3,33.2-0.9
	c1.4,0.2,1.4-1.6,1.8-2.5C213,55.3,206.5,56.2,200,56.3z M217.7,61.8l0.6-2c-11.1,0.5-22.2,0.9-33.3,0.9c0.6,0.8,1,2.2,2.2,1.9
	C197.4,62.6,207.6,62.2,217.7,61.8z M190.3,66.8c2.5,1.8,5.7,1.9,8.7,2c5.5,0,11.2,0.2,16.6-1.1c0.1-0.6,0.2-1.2,0.3-1.8
	C207.4,66.6,198.8,66.5,190.3,66.8z M216.4,65.1l0.9-2.2c-10.1,0-20.1,0.8-30.2,0.7c0.6,0.8,1.3,1.5,2,2.1
	C198.3,65.8,207.3,65.1,216.4,65.1z M176.5,57.2c-7,0.1-14.1-0.3-21,1c-4.5,0.9-9.4,3-10.9,7.7c6.1,0.6,12.2,0.8,18.3,1.3
	c8.2,0,16.4,1.4,24.5,0.1c-1.4-2.2-2.8-4.6-4.6-6.6C181.1,58.9,179.1,57,176.5,57.2z M135.7,30.1c-5.3-2.1-11-2.4-16.6-2.8
	c-9.5-0.4-19.1-0.3-28.7,0c3,6.3,6.6,12.3,9.7,18.5c20.9,0,41.9-0.6,62.8-0.1C154.4,39.5,145.5,33.9,135.7,30.1z M74,11.3
	c-9-2.1-18.8-2.6-27.5,0.9c-7.1,2.8-13.1,8.9-14.8,16.5c10-1,20-2.1,30.1-3.1c13.3-0.9,26.6-1.9,40-1.8C93.4,18,83.9,13.8,74,11.3z
	 M31.6,47.5c7.2-0.6,14.4-0.4,21.6-0.6c0.5-5.8,2.8-11.3,4.7-16.8l0-0.6L57,28.3c-8.2,0.3-16.3,1.3-24.5,2.1l-1.6,0.3
	C30.4,36.3,30.2,42,31.6,47.5z M79.9,39.6c3.7-0.5,7.8-0.9,10.9,1.6c0.1-1.5,0.4-3,0-4.5c-1.6-3.8-4.4-7-7.7-9.5
	c-3.5,0.2-7,0.5-10.6,0.6c-2.8,2.6-4.2,6.3-5.1,9.9c-0.9,3.4-1.7,6.8-1.9,10.4c7.7-0.1,15.4,0.1,23.1-0.1l0.7-1
	c-3.8-0.6-7.6-1.3-11.4-1.7C77.7,43.2,77.3,40.3,79.9,39.6z M41,68.5c7.4,0.7,14.9,0.7,22.3,1.4c12.4,0.5,24.7,1.2,37.1,2.1
	C99.5,75,99,78.2,99,81.5c-11.7-1-23.4-1.3-35.1-2.6C58.7,79,53.5,78,48.3,78c-1.2-0.1,0.3,1.1,0.4,1.5c17.5,1.6,34.9,3.2,52.4,4.8
	c-0.2-6.3,0.6-12.9,4.2-18.3c2.6-3.6,6.3-6.7,10.8-7.4l-0.1-0.8l-0.5,0.8c-6.3,0.6-11.8,5.2-14.1,10.9c-6,0-11.9-0.2-17.9-0.4
	c-7-0.6-14-0.1-20.9-1c0.1-4.4,0.6-8.9,1.8-13.2c1.6,2.3,4.5,1,6.8,1l-0.4-1.4c-1.9,0.1-3.8,0.1-5.6,0.3l-0.8-0.2
	c0.4-1.3,0.9-2.6,1.1-3.9c-0.8,1.2-1.3,2.6-1.6,4c-1,4.4-1.8,9-1.8,13.5C55,68,47.7,67.5,40.5,67.3L41,68.5z M80.4,104.4
	c9,4.8,19,8.1,29.2,8.8c6.8,0.3,14.1-0.3,20-3.9c-3.4-0.1-6.8,0.1-10.2-0.3c-1-0.8-2-1.5-3-2.3c-3.1-2.3-4.8-5.9-6-9.5
	c-2.6-8.5-1.3-18.1,3.7-25.5c-1.8,2.2-3.5,4.6-4.5,7.3c-1.5,3.8-1.1,7.9-1.7,11.9c-3.8-0.7-7.6-1-11.3-1.4
	C82.4,88,68.2,86.2,54,84.9C61.7,92.7,70.6,99.5,80.4,104.4z M127.7,75.3c-2-1.9-5.1-2.5-7.6-1.3c-6.1,3.3-7.6,11.1-6.8,17.4
	c0.5,4.1,2.4,8.3,5.9,10.7c2.6,1.8,6.3,1.3,8.6-0.8c3.7-3.4,5.1-8.5,4.9-13.3C132.6,83.3,131.3,78.4,127.7,75.3z M145.2,59.9
	c0.7-0.4,1.3-0.9,2-1.3c-3-2.3-6.9-3-10.4-4c-11.3-2.9-23-3.9-34.6-5.1c1.6,0.8,3.6,0.4,5.3,0.8C120.4,52.2,133.4,54.5,145.2,59.9z
	 M199.8,91c-3.1,0-6.3,0.3-9.4,0.8C193.3,93.8,197.4,93.7,199.8,91z M232.7,85.6c-1.8,1.4-4.2,1.6-6.3,2.2
	c-4.1,0.8-8.3,1.3-12.4,1.9c-2,3.4-4.1,8.2-8.8,8.1c-4.1,0.2-8.3,1-12.3,0.3c-3.4-0.7-5.1-4-7.6-6c-2.3-0.2-4.5,0.1-6.8,0.2
	c-10.7,0.7-21.3-0.6-32-0.8c-0.5,3.1-0.5,6.4-2.1,9.3c-1.4,3.2-4.2,5.5-6.4,8.1c-4.7,6.5-11.7,11.3-19.4,13.6
	c-10.5,3.3-21.9,3-32.7,0.8c-24.3-5.2-46.3-18.9-63-36.9C14.7,77.4,7.7,67,3.5,55.4c-3.8-10.4-5-22.1-1.1-32.7
	c3.3-9,11-16.1,20-19.4c11.9-4.5,25.2-4,37.5-1.2c15.7,4.2,31.2,10.7,43.4,21.7c11.8,0.2,23.9,0.9,35.1,5.1
	c10.2,3.6,19.3,9.6,27.5,16.5c15.6,0.4,31.2,2.3,46.5,5.5c5,1.3,10.8,2,14.7,5.7c2.5,2.4,3.3,5.8,3.7,9.1c0.4,0.1,1.3,0.3,1.8,0.3
	c1,1.3,2.2,2.6,2.3,4.3C235.3,75.5,234.7,80.8,232.7,85.6z"/>
</svg>
