<?xml version="1.0" encoding="UTF-8"?><svg xmlns="http://www.w3.org/2000/svg" xmlns:xlink="http://www.w3.org/1999/xlink" width="375" zoomAndPan="magnify" viewBox="0 0 375 374.999991" height="374.999991" preserveAspectRatio="xMidYMid meet" version="1.0"><defs><clipPath id="clip-0"><path d="M 1.246094 3.046875 L 373.753906 3.046875 L 373.753906 371.921875 L 1.246094 371.921875 Z M 1.246094 3.046875 " clip-rule="nonzero"/></clipPath></defs><path fill="rgb(58.81958%, 9.408569%, 20.779419%)" d="M 255.398438 152.84375 L 251.195312 141.601562 C 247.417969 143.007812 243.617188 144.300781 239.835938 145.425781 L 243.3125 156.929688 C 247.324219 155.734375 251.40625 154.347656 255.398438 152.84375 " fill-opacity="1" fill-rule="nonzero"/><path fill="rgb(58.81958%, 9.408569%, 20.779419%)" d="M 217.542969 179.019531 L 217.542969 162.871094 C 222 162.140625 226.484375 161.273438 230.917969 160.238281 L 228.195312 148.527344 C 222.398438 149.886719 216.53125 150.945312 210.757812 151.71875 L 205.523438 152.398438 L 205.523438 179.019531 C 205.523438 180.640625 205.570312 182.238281 205.640625 183.832031 L 217.660156 183.222656 C 217.589844 181.835938 217.542969 180.429688 217.542969 179.019531 " fill-opacity="1" fill-rule="nonzero"/><path fill="rgb(58.81958%, 9.408569%, 20.779419%)" d="M 109.394531 135.261719 C 96.132812 135.261719 85.359375 124.488281 85.359375 111.222656 C 85.359375 97.960938 96.132812 87.183594 109.394531 87.183594 C 122.652344 87.183594 133.425781 97.960938 133.425781 111.222656 C 133.425781 124.488281 122.652344 135.261719 109.394531 135.261719 Z M 109.394531 75.164062 C 89.515625 75.164062 73.34375 91.339844 73.34375 111.222656 C 73.34375 131.105469 89.515625 147.28125 109.394531 147.28125 C 129.273438 147.28125 145.441406 131.105469 145.441406 111.222656 C 145.441406 91.339844 129.273438 75.164062 109.394531 75.164062 " fill-opacity="1" fill-rule="nonzero"/><path fill="rgb(58.81958%, 9.408569%, 20.779419%)" d="M 337.707031 179.019531 C 337.707031 225.410156 308.839844 267.242188 265.605469 283.863281 C 222.375 267.242188 193.507812 225.410156 193.507812 179.019531 L 193.507812 141.128906 C 218.597656 140.097656 243.359375 133.546875 265.605469 122.046875 C 287.878906 133.546875 312.617188 140.097656 337.707031 141.128906 Z M 268.46875 109.953125 L 265.605469 108.40625 L 262.742188 109.953125 C 239.742188 122.421875 213.714844 129.085938 187.453125 129.253906 L 181.492188 129.300781 L 181.492188 179.019531 C 181.492188 231.160156 214.464844 278.160156 263.566406 295.929688 L 265.605469 296.65625 L 267.648438 295.929688 C 316.746094 278.160156 349.722656 231.160156 349.722656 179.019531 L 349.722656 129.300781 L 343.761719 129.253906 C 317.523438 129.085938 291.496094 122.421875 268.46875 109.953125 " fill-opacity="1" fill-rule="nonzero"/><path fill="rgb(58.81958%, 9.408569%, 20.779419%)" d="M 311.183594 177.332031 L 253.589844 234.941406 L 232.046875 213.390625 L 241.574219 203.859375 L 253.589844 215.878906 L 301.65625 167.800781 Z M 241.574219 186.863281 L 215.054688 213.390625 L 253.589844 251.9375 L 328.175781 177.332031 L 301.65625 150.804688 L 253.589844 198.882812 L 241.574219 186.863281 " fill-opacity="1" fill-rule="nonzero"/><g clip-path="url(#clip-0)"><path fill="rgb(58.81958%, 9.408569%, 20.779419%)" d="M 361.738281 179.019531 C 361.738281 238.484375 322.285156 291.796875 265.605469 309.285156 C 208.929688 291.796875 169.476562 238.484375 169.476562 179.019531 L 169.476562 117.234375 L 186.46875 117.234375 C 214.5625 117.234375 241.761719 109.367188 265.605469 94.367188 C 289.335938 109.34375 316.605469 117.234375 344.746094 117.234375 L 361.738281 117.234375 Z M 347.234375 325.273438 L 328.835938 320.671875 L 315.246094 343.328125 L 302.617188 305.507812 C 314.566406 298.160156 325.289062 289.238281 334.609375 279.003906 Z M 215.96875 343.328125 L 202.378906 320.671875 L 183.980469 325.273438 L 196.605469 279.003906 C 205.921875 289.238281 216.648438 298.160156 228.59375 305.507812 Z M 157.457031 105.214844 L 157.457031 147.164062 C 146.121094 162.304688 128.332031 171.320312 109.394531 171.320312 C 76.253906 171.320312 49.308594 144.371094 49.308594 111.222656 C 49.308594 78.097656 76.253906 51.125 109.394531 51.125 C 140.488281 51.125 166.140625 74.90625 169.171875 105.214844 Z M 156.050781 181.203125 L 152.90625 183.128906 C 145.605469 187.566406 137.722656 190.828125 129.460938 192.847656 L 125.867188 193.714844 L 122.652344 207.378906 L 96.132812 207.378906 L 92.917969 193.714844 L 89.328125 192.847656 C 81.066406 190.828125 73.179688 187.566406 65.878906 183.128906 L 62.734375 181.203125 L 50.8125 188.597656 L 32.035156 169.839844 L 39.429688 157.890625 L 37.503906 154.746094 C 33.09375 147.445312 29.808594 139.558594 27.789062 131.292969 L 26.921875 127.726562 L 13.261719 124.488281 L 13.261719 97.960938 L 26.921875 94.742188 L 27.789062 91.152344 C 29.808594 82.886719 33.09375 75 37.503906 67.699219 L 39.429688 64.554688 L 32.035156 52.628906 L 50.8125 33.847656 L 62.734375 41.242188 L 65.878906 39.316406 C 73.179688 34.902344 81.066406 31.617188 89.328125 29.621094 L 92.917969 28.730469 L 96.132812 15.066406 L 122.652344 15.066406 L 125.867188 28.730469 L 129.460938 29.621094 C 137.722656 31.617188 145.605469 34.902344 152.90625 39.316406 L 156.050781 41.242188 L 167.996094 33.847656 L 186.75 52.628906 L 179.355469 64.554688 L 181.28125 67.699219 C 185.691406 75 188.980469 82.886719 190.996094 91.152344 L 191.867188 94.742188 L 205.523438 97.960938 L 205.523438 103.851562 C 199.257812 104.742188 192.898438 105.214844 186.46875 105.214844 L 181.1875 105.214844 C 178.113281 68.261719 147.132812 39.105469 109.394531 39.105469 C 69.636719 39.105469 37.292969 71.453125 37.292969 111.222656 C 37.292969 150.992188 69.636719 183.339844 109.394531 183.339844 C 127.300781 183.339844 144.363281 176.625 157.457031 164.910156 L 157.457031 179.019531 C 157.457031 180.078125 157.574219 181.109375 157.597656 182.167969 Z M 373.753906 105.214844 L 344.746094 105.214844 C 317.734375 105.214844 291.613281 97.300781 268.894531 82.160156 L 265.371094 80.117188 L 262.0625 82.324219 C 248.378906 91.457031 233.335938 97.910156 217.542969 101.597656 L 217.542969 88.429688 L 201.699219 84.71875 C 199.703125 77.746094 196.933594 71.03125 193.414062 64.695312 L 201.980469 50.84375 L 169.757812 18.609375 L 155.910156 27.179688 C 149.574219 23.660156 142.859375 20.886719 135.890625 18.894531 L 132.183594 3.046875 L 86.605469 3.046875 L 82.894531 18.894531 C 75.925781 20.886719 69.210938 23.660156 62.875 27.179688 L 49.027344 18.609375 L 16.804688 50.84375 L 25.371094 64.695312 C 21.851562 71.03125 19.082031 77.746094 17.085938 84.71875 L 1.246094 88.429688 L 1.246094 134.019531 L 17.085938 137.75 C 19.082031 144.722656 21.851562 151.414062 25.371094 157.773438 L 16.804688 171.601562 L 49.027344 203.835938 L 62.875 195.265625 C 69.210938 198.785156 75.925781 201.582031 82.894531 203.574219 L 86.605469 219.398438 L 132.183594 219.398438 L 135.890625 203.574219 C 142.859375 201.582031 149.574219 198.785156 155.910156 195.265625 L 158.703125 196.980469 C 161.917969 222.96875 171.894531 247.335938 187.195312 267.78125 L 166.988281 341.917969 L 196.652344 334.476562 L 219.113281 371.921875 L 239.25 311.46875 C 247.089844 315.4375 255.304688 318.792969 263.917969 321.328125 L 265.605469 321.824219 L 267.296875 321.328125 C 275.910156 318.792969 284.125 315.4375 291.964844 311.46875 L 312.101562 371.921875 L 334.5625 334.476562 L 364.226562 341.917969 L 344.019531 267.78125 C 362.796875 242.6875 373.753906 211.699219 373.753906 179.019531 L 373.753906 105.214844 " fill-opacity="1" fill-rule="nonzero"/></g></svg>