<?xml version="1.0" encoding="UTF-8"?><svg xmlns="http://www.w3.org/2000/svg" xmlns:xlink="http://www.w3.org/1999/xlink" width="375" zoomAndPan="magnify" viewBox="0 0 375 374.999991" height="374.999991" preserveAspectRatio="xMidYMid meet" version="1.0"><defs><clipPath id="clip-0"><path d="M 21 169 L 374 169 L 374 355.734375 L 21 355.734375 Z M 21 169 " clip-rule="nonzero"/></clipPath><clipPath id="clip-1"><path d="M 1 18.984375 L 354 18.984375 L 354 205 L 1 205 Z M 1 18.984375 " clip-rule="nonzero"/></clipPath></defs><path fill="rgb(58.81958%, 9.408569%, 20.779419%)" d="M 286.429688 149.804688 C 286.429688 150.660156 286.386719 151.511719 286.304688 152.363281 C 286.21875 153.214844 286.09375 154.0625 285.929688 154.898438 C 285.761719 155.738281 285.554688 156.570312 285.304688 157.386719 C 285.054688 158.207031 284.765625 159.011719 284.441406 159.800781 C 284.113281 160.59375 283.746094 161.363281 283.34375 162.121094 C 282.9375 162.875 282.5 163.605469 282.023438 164.320312 C 281.546875 165.03125 281.039062 165.714844 280.496094 166.378906 C 279.953125 167.039062 279.378906 167.671875 278.769531 168.277344 C 278.164062 168.882812 277.53125 169.457031 276.871094 170 C 276.207031 170.542969 275.519531 171.050781 274.808594 171.527344 C 274.097656 172.003906 273.363281 172.441406 272.609375 172.84375 C 271.851562 173.25 271.078125 173.613281 270.289062 173.941406 C 269.496094 174.269531 268.691406 174.558594 267.871094 174.804688 C 267.050781 175.054688 266.222656 175.261719 265.382812 175.429688 C 264.542969 175.59375 263.695312 175.71875 262.84375 175.804688 C 261.992188 175.886719 261.136719 175.929688 260.28125 175.929688 C 259.425781 175.929688 258.570312 175.886719 257.71875 175.804688 C 256.867188 175.71875 256.019531 175.59375 255.179688 175.429688 C 254.339844 175.261719 253.511719 175.054688 252.691406 174.804688 C 251.871094 174.558594 251.066406 174.269531 250.273438 173.941406 C 249.484375 173.613281 248.710938 173.25 247.953125 172.84375 C 247.199219 172.441406 246.464844 172.003906 245.753906 171.527344 C 245.042969 171.050781 244.355469 170.542969 243.691406 170 C 243.03125 169.457031 242.398438 168.882812 241.792969 168.277344 C 241.1875 167.671875 240.609375 167.039062 240.066406 166.378906 C 239.523438 165.714844 239.015625 165.03125 238.539062 164.320312 C 238.0625 163.605469 237.625 162.875 237.21875 162.121094 C 236.816406 161.363281 236.449219 160.59375 236.121094 159.800781 C 235.796875 159.011719 235.507812 158.207031 235.257812 157.386719 C 235.007812 156.570312 234.800781 155.738281 234.632812 154.898438 C 234.46875 154.0625 234.34375 153.214844 234.257812 152.363281 C 234.175781 151.511719 234.132812 150.660156 234.132812 149.804688 C 234.132812 148.949219 234.175781 148.09375 234.257812 147.242188 C 234.34375 146.390625 234.46875 145.546875 234.632812 144.707031 C 234.800781 143.867188 235.007812 143.039062 235.257812 142.21875 C 235.507812 141.398438 235.796875 140.59375 236.121094 139.804688 C 236.449219 139.015625 236.816406 138.242188 237.21875 137.488281 C 237.625 136.730469 238.0625 136 238.539062 135.289062 C 239.015625 134.574219 239.523438 133.890625 240.066406 133.226562 C 240.609375 132.566406 241.1875 131.933594 241.792969 131.328125 C 242.398438 130.722656 243.03125 130.148438 243.691406 129.605469 C 244.355469 129.0625 245.042969 128.554688 245.753906 128.078125 C 246.464844 127.605469 247.199219 127.164062 247.953125 126.761719 C 248.710938 126.359375 249.484375 125.992188 250.273438 125.664062 C 251.066406 125.335938 251.871094 125.050781 252.691406 124.800781 C 253.511719 124.550781 254.339844 124.34375 255.179688 124.179688 C 256.019531 124.011719 256.867188 123.886719 257.71875 123.800781 C 258.570312 123.71875 259.425781 123.675781 260.28125 123.675781 C 261.136719 123.675781 261.992188 123.71875 262.84375 123.800781 C 263.695312 123.886719 264.542969 124.011719 265.382812 124.179688 C 266.222656 124.34375 267.050781 124.550781 267.871094 124.800781 C 268.691406 125.050781 269.496094 125.335938 270.289062 125.664062 C 271.078125 125.992188 271.851562 126.359375 272.609375 126.761719 C 273.363281 127.164062 274.097656 127.605469 274.808594 128.078125 C 275.519531 128.554688 276.207031 129.0625 276.871094 129.605469 C 277.53125 130.148438 278.164062 130.722656 278.769531 131.328125 C 279.378906 131.933594 279.953125 132.566406 280.496094 133.226562 C 281.039062 133.890625 281.546875 134.574219 282.023438 135.289062 C 282.5 136 282.9375 136.730469 283.34375 137.488281 C 283.746094 138.242188 284.113281 139.015625 284.441406 139.804688 C 284.765625 140.59375 285.054688 141.398438 285.304688 142.21875 C 285.554688 143.039062 285.761719 143.867188 285.929688 144.707031 C 286.09375 145.546875 286.21875 146.390625 286.304688 147.242188 C 286.386719 148.09375 286.429688 148.949219 286.429688 149.804688 Z M 286.429688 149.804688 " fill-opacity="1" fill-rule="nonzero"/><path fill="rgb(58.81958%, 9.408569%, 20.779419%)" d="M 315.484375 239.613281 L 315.484375 223.625 C 315.484375 202.894531 304.574219 184.820312 288.351562 174.960938 C 281.429688 182.660156 271.429688 187.539062 260.28125 187.539062 C 254.441406 187.539062 248.933594 186.175781 244.003906 183.796875 C 259.042969 197.898438 269.183594 217.546875 271.425781 239.613281 Z M 315.484375 239.613281 " fill-opacity="1" fill-rule="nonzero"/><path fill="rgb(58.81958%, 9.408569%, 20.779419%)" d="M 141.15625 149.804688 C 141.15625 150.660156 141.117188 151.511719 141.03125 152.363281 C 140.949219 153.214844 140.824219 154.0625 140.65625 154.898438 C 140.488281 155.738281 140.28125 156.570312 140.03125 157.386719 C 139.785156 158.207031 139.496094 159.011719 139.167969 159.800781 C 138.839844 160.59375 138.472656 161.363281 138.070312 162.121094 C 137.667969 162.875 137.226562 163.605469 136.75 164.320312 C 136.277344 165.03125 135.765625 165.714844 135.222656 166.378906 C 134.679688 167.039062 134.105469 167.671875 133.5 168.277344 C 132.894531 168.882812 132.261719 169.457031 131.597656 170 C 130.9375 170.542969 130.25 171.050781 129.535156 171.527344 C 128.824219 172.003906 128.089844 172.441406 127.335938 172.84375 C 126.582031 173.25 125.808594 173.613281 125.015625 173.941406 C 124.226562 174.269531 123.417969 174.558594 122.601562 174.804688 C 121.78125 175.054688 120.949219 175.261719 120.109375 175.429688 C 119.269531 175.59375 118.425781 175.71875 117.574219 175.804688 C 116.71875 175.886719 115.867188 175.929688 115.007812 175.929688 C 114.152344 175.929688 113.296875 175.886719 112.445312 175.804688 C 111.59375 175.71875 110.746094 175.59375 109.90625 175.429688 C 109.066406 175.261719 108.238281 175.054688 107.417969 174.804688 C 106.597656 174.558594 105.792969 174.269531 105.003906 173.941406 C 104.210938 173.613281 103.4375 173.25 102.683594 172.84375 C 101.925781 172.441406 101.195312 172.003906 100.480469 171.527344 C 99.769531 171.050781 99.082031 170.542969 98.421875 170 C 97.757812 169.457031 97.125 168.882812 96.519531 168.277344 C 95.914062 167.671875 95.339844 167.039062 94.796875 166.378906 C 94.253906 165.714844 93.742188 165.03125 93.265625 164.320312 C 92.792969 163.605469 92.351562 162.875 91.949219 162.121094 C 91.542969 161.363281 91.179688 160.59375 90.851562 159.800781 C 90.523438 159.011719 90.234375 158.207031 89.984375 157.386719 C 89.738281 156.570312 89.53125 155.738281 89.363281 154.898438 C 89.195312 154.0625 89.070312 153.214844 88.984375 152.363281 C 88.902344 151.511719 88.859375 150.660156 88.859375 149.804688 C 88.859375 148.949219 88.902344 148.09375 88.984375 147.242188 C 89.070312 146.390625 89.195312 145.546875 89.363281 144.707031 C 89.53125 143.867188 89.738281 143.039062 89.984375 142.21875 C 90.234375 141.398438 90.523438 140.59375 90.851562 139.804688 C 91.179688 139.015625 91.542969 138.242188 91.949219 137.488281 C 92.351562 136.730469 92.792969 136 93.265625 135.289062 C 93.742188 134.574219 94.253906 133.890625 94.796875 133.226562 C 95.339844 132.566406 95.914062 131.933594 96.519531 131.328125 C 97.125 130.722656 97.757812 130.148438 98.421875 129.605469 C 99.082031 129.0625 99.769531 128.554688 100.480469 128.078125 C 101.195312 127.605469 101.925781 127.164062 102.683594 126.761719 C 103.4375 126.359375 104.210938 125.992188 105.003906 125.664062 C 105.792969 125.335938 106.597656 125.050781 107.417969 124.800781 C 108.238281 124.550781 109.066406 124.34375 109.90625 124.179688 C 110.746094 124.011719 111.59375 123.886719 112.445312 123.800781 C 113.296875 123.71875 114.152344 123.675781 115.007812 123.675781 C 115.867188 123.675781 116.71875 123.71875 117.574219 123.800781 C 118.425781 123.886719 119.269531 124.011719 120.109375 124.179688 C 120.949219 124.34375 121.78125 124.550781 122.601562 124.800781 C 123.417969 125.050781 124.226562 125.335938 125.015625 125.664062 C 125.808594 125.992188 126.582031 126.359375 127.335938 126.761719 C 128.089844 127.164062 128.824219 127.605469 129.535156 128.078125 C 130.25 128.554688 130.9375 129.0625 131.597656 129.605469 C 132.261719 130.148438 132.894531 130.722656 133.5 131.328125 C 134.105469 131.933594 134.679688 132.566406 135.222656 133.226562 C 135.765625 133.890625 136.277344 134.574219 136.75 135.289062 C 137.226562 136 137.667969 136.730469 138.070312 137.488281 C 138.472656 138.242188 138.839844 139.015625 139.167969 139.804688 C 139.496094 140.59375 139.785156 141.398438 140.03125 142.21875 C 140.28125 143.039062 140.488281 143.867188 140.65625 144.707031 C 140.824219 145.546875 140.949219 146.390625 141.03125 147.242188 C 141.117188 148.09375 141.15625 148.949219 141.15625 149.804688 Z M 141.15625 149.804688 " fill-opacity="1" fill-rule="nonzero"/><path fill="rgb(58.81958%, 9.408569%, 20.779419%)" d="M 59.804688 223.625 L 59.804688 239.613281 L 103.863281 239.613281 C 106.105469 217.550781 116.246094 197.902344 131.285156 183.796875 C 126.351562 186.175781 120.84375 187.539062 115.007812 187.539062 C 103.859375 187.539062 93.859375 182.660156 86.9375 174.960938 C 70.714844 184.820312 59.804688 202.894531 59.804688 223.625 Z M 59.804688 223.625 " fill-opacity="1" fill-rule="nonzero"/><path fill="rgb(58.81958%, 9.408569%, 20.779419%)" d="M 222.511719 145.449219 C 222.511719 146.589844 222.453125 147.726562 222.34375 148.863281 C 222.230469 150 222.0625 151.125 221.839844 152.246094 C 221.617188 153.363281 221.339844 154.46875 221.007812 155.5625 C 220.679688 156.652344 220.292969 157.726562 219.855469 158.78125 C 219.417969 159.832031 218.933594 160.863281 218.394531 161.871094 C 217.855469 162.875 217.269531 163.855469 216.632812 164.800781 C 216 165.75 215.320312 166.667969 214.597656 167.546875 C 213.871094 168.429688 213.105469 169.273438 212.296875 170.082031 C 211.492188 170.886719 210.644531 171.652344 209.761719 172.378906 C 208.882812 173.101562 207.964844 173.78125 207.015625 174.414062 C 206.066406 175.046875 205.085938 175.632812 204.082031 176.171875 C 203.074219 176.710938 202.042969 177.195312 200.988281 177.632812 C 199.933594 178.070312 198.859375 178.453125 197.765625 178.785156 C 196.671875 179.117188 195.566406 179.394531 194.445312 179.617188 C 193.328125 179.839844 192.199219 180.003906 191.0625 180.117188 C 189.925781 180.230469 188.789062 180.285156 187.644531 180.285156 C 186.503906 180.285156 185.363281 180.230469 184.226562 180.117188 C 183.089844 180.003906 181.964844 179.839844 180.84375 179.617188 C 179.722656 179.394531 178.617188 179.117188 177.523438 178.785156 C 176.433594 178.453125 175.359375 178.070312 174.304688 177.632812 C 173.246094 177.195312 172.21875 176.710938 171.210938 176.171875 C 170.203125 175.632812 169.222656 175.046875 168.273438 174.414062 C 167.324219 173.78125 166.410156 173.101562 165.527344 172.378906 C 164.644531 171.652344 163.800781 170.886719 162.992188 170.082031 C 162.183594 169.273438 161.417969 168.429688 160.695312 167.546875 C 159.96875 166.667969 159.289062 165.75 158.65625 164.800781 C 158.019531 163.855469 157.433594 162.875 156.898438 161.871094 C 156.359375 160.863281 155.871094 159.832031 155.433594 158.78125 C 154.996094 157.726562 154.613281 156.652344 154.28125 155.5625 C 153.949219 154.46875 153.671875 153.363281 153.449219 152.246094 C 153.226562 151.125 153.058594 150 152.949219 148.863281 C 152.835938 147.726562 152.78125 146.589844 152.78125 145.449219 C 152.78125 144.308594 152.835938 143.167969 152.949219 142.035156 C 153.058594 140.898438 153.226562 139.769531 153.449219 138.652344 C 153.671875 137.535156 153.949219 136.429688 154.28125 135.335938 C 154.613281 134.246094 154.996094 133.171875 155.433594 132.117188 C 155.871094 131.0625 156.359375 130.03125 156.898438 129.027344 C 157.433594 128.019531 158.019531 127.042969 158.65625 126.09375 C 159.289062 125.144531 159.96875 124.230469 160.695312 123.347656 C 161.417969 122.464844 162.183594 121.621094 162.992188 120.816406 C 163.800781 120.007812 164.644531 119.242188 165.527344 118.519531 C 166.410156 117.796875 167.324219 117.117188 168.273438 116.484375 C 169.222656 115.847656 170.203125 115.261719 171.210938 114.726562 C 172.21875 114.1875 173.246094 113.699219 174.304688 113.265625 C 175.359375 112.828125 176.433594 112.445312 177.523438 112.113281 C 178.617188 111.78125 179.722656 111.503906 180.84375 111.28125 C 181.964844 111.058594 183.089844 110.890625 184.226562 110.78125 C 185.363281 110.667969 186.503906 110.613281 187.644531 110.613281 C 188.789062 110.613281 189.925781 110.667969 191.0625 110.78125 C 192.199219 110.890625 193.328125 111.058594 194.445312 111.28125 C 195.566406 111.503906 196.671875 111.78125 197.765625 112.113281 C 198.859375 112.445312 199.933594 112.828125 200.988281 113.265625 C 202.042969 113.699219 203.074219 114.1875 204.082031 114.726562 C 205.085938 115.261719 206.066406 115.847656 207.015625 116.484375 C 207.964844 117.117188 208.882812 117.796875 209.761719 118.519531 C 210.644531 119.242188 211.492188 120.007812 212.296875 120.816406 C 213.105469 121.621094 213.871094 122.464844 214.597656 123.347656 C 215.320312 124.230469 216 125.144531 216.632812 126.09375 C 217.269531 127.042969 217.855469 128.019531 218.394531 129.027344 C 218.933594 130.03125 219.417969 131.0625 219.855469 132.117188 C 220.292969 133.171875 220.679688 134.246094 221.007812 135.335938 C 221.339844 136.429688 221.617188 137.535156 221.839844 138.652344 C 222.0625 139.769531 222.230469 140.898438 222.34375 142.035156 C 222.453125 143.167969 222.511719 144.308594 222.511719 145.449219 Z M 222.511719 145.449219 " fill-opacity="1" fill-rule="nonzero"/><path fill="rgb(58.81958%, 9.408569%, 20.779419%)" d="M 260.28125 248.898438 C 260.28125 218.460938 243.199219 192.214844 218.535156 180.058594 C 210.3125 187.394531 199.507812 191.894531 187.644531 191.894531 C 175.78125 191.894531 164.976562 187.394531 156.753906 180.058594 C 132.089844 192.214844 115.007812 218.460938 115.007812 248.898438 L 115.007812 268.644531 L 260.28125 268.644531 Z M 260.28125 248.898438 " fill-opacity="1" fill-rule="nonzero"/><g clip-path="url(#clip-0)"><path fill="rgb(58.81958%, 9.408569%, 20.779419%)" d="M 372.339844 195.367188 L 353.953125 172.144531 C 352.820312 170.710938 351.066406 169.882812 349.242188 169.945312 C 347.414062 169.992188 345.714844 170.898438 344.65625 172.386719 L 328.175781 195.613281 C 326.320312 198.230469 326.9375 201.855469 329.554688 203.707031 C 330.578125 204.433594 331.75 204.777344 332.910156 204.777344 C 334.734375 204.777344 336.523438 203.925781 337.660156 202.332031 L 344.398438 192.832031 C 341.5 276.742188 272.320312 344.121094 187.644531 344.121094 C 111.046875 344.121094 47.136719 288.980469 33.484375 216.347656 L 21.667969 216.347656 C 35.425781 295.519531 104.476562 355.734375 187.644531 355.734375 C 278.675781 355.734375 352.789062 283.621094 356.007812 193.453125 L 363.226562 202.574219 C 365.21875 205.089844 368.867188 205.515625 371.390625 203.523438 C 373.90625 201.539062 374.332031 197.886719 372.339844 195.367188 Z M 372.339844 195.367188 " fill-opacity="1" fill-rule="nonzero"/></g><g clip-path="url(#clip-1)"><path fill="rgb(58.81958%, 9.408569%, 20.779419%)" d="M 23.988281 204.777344 C 25.761719 204.777344 27.441406 203.964844 28.542969 202.574219 L 46.929688 179.351562 C 48.921875 176.832031 48.496094 173.179688 45.976562 171.195312 C 43.457031 169.203125 39.804688 169.628906 37.816406 172.144531 L 30.914062 180.859375 C 34.34375 97.425781 103.316406 30.597656 187.644531 30.597656 C 264.238281 30.597656 328.152344 85.738281 341.804688 158.367188 L 353.621094 158.367188 C 339.863281 79.195312 270.820312 18.984375 187.644531 18.984375 C 96.285156 18.984375 21.960938 91.632812 19.257812 182.269531 L 12.246094 172.386719 C 10.390625 169.769531 6.765625 169.152344 4.148438 171.011719 C 1.53125 172.863281 0.910156 176.488281 2.769531 179.105469 L 19.246094 202.332031 C 20.304688 203.820312 22.003906 204.726562 23.832031 204.773438 C 23.886719 204.777344 23.9375 204.777344 23.988281 204.777344 Z M 23.988281 204.777344 " fill-opacity="1" fill-rule="nonzero"/></g></svg>