<?xml version="1.0" encoding="UTF-8"?><svg xmlns="http://www.w3.org/2000/svg" xmlns:xlink="http://www.w3.org/1999/xlink" width="375" zoomAndPan="magnify" viewBox="0 0 375 374.999991" height="374.999991" preserveAspectRatio="xMidYMid meet" version="1.0"><path fill="rgb(58.81958%, 9.408569%, 20.779419%)" d="M 362.5 337.5 L 337.5 337.5 L 337.5 237.5 L 362.5 237.5 Z M 291.871094 362.5 L 187.5 362.5 C 180.613281 362.5 175 356.882812 175 350 C 175 343.503906 179.929688 338.183594 186.472656 337.621094 C 189.792969 337.351562 192.308594 334.351562 192.1875 331.003906 C 192.039062 327.660156 189.28125 325 185.9375 325 L 181.25 325 C 174.363281 325 168.75 319.382812 168.75 312.5 C 168.75 305.613281 174.363281 300 181.25 300 C 184.691406 300 187.5 297.191406 187.5 293.75 C 187.5 290.308594 184.691406 287.5 181.25 287.5 L 175 287.5 C 168.113281 287.5 162.5 281.882812 162.5 275 C 162.5 268.113281 168.113281 262.5 175 262.5 C 178.441406 262.5 181.25 259.691406 181.25 256.25 C 181.25 252.808594 178.441406 250 175 250 L 168.75 250 C 161.863281 250 156.25 244.382812 156.25 237.5 C 156.25 230.613281 161.863281 225 168.75 225 L 250 225 C 252.074219 225 254.003906 223.972656 255.175781 222.242188 C 256.347656 220.53125 256.566406 218.359375 255.808594 216.429688 L 245.09375 189.648438 C 244.214844 187.425781 243.75 185.082031 243.75 182.691406 L 243.75 165.625 C 243.75 157.007812 250.757812 150 259.375 150 C 267.992188 150 275 157.007812 275 165.625 L 275 187.5 C 275 188.304688 275.144531 189.085938 275.4375 189.820312 L 287.9375 221.070312 C 288.621094 222.777344 290.039062 224.097656 291.773438 224.683594 L 325 235.742188 L 325 340.40625 Z M 131.25 330.492188 C 76.414062 302.125 37.230469 253.296875 20.921875 195.875 L 46.949219 188.0625 C 58.789062 221.386719 81.347656 250.339844 112.132812 270.140625 L 127.878906 280.25 C 128.90625 280.933594 130.078125 281.25 131.25 281.25 C 132.421875 281.25 133.59375 280.933594 134.617188 280.25 L 150.367188 270.140625 C 150.4375 270.117188 150.488281 270.066406 150.535156 270.019531 C 150.21875 271.628906 150 273.289062 150 275 C 150 284.082031 154.859375 292.039062 162.132812 296.410156 C 158.445312 300.757812 156.25 306.371094 156.25 312.5 C 156.25 313.378906 156.324219 314.234375 156.421875 315.113281 C 148.386719 320.75 139.988281 325.953125 131.25 330.492188 Z M 12.5 48.386719 L 131.25 12.769531 L 250 48.386719 L 250 64.109375 L 225 71.605469 L 225 68.75 C 225 65.964844 223.144531 63.5 220.457031 62.742188 L 132.957031 37.742188 C 131.714844 37.378906 130.371094 37.425781 129.148438 37.867188 L 41.652344 69.117188 C 39.160156 69.996094 37.5 72.363281 37.5 75 L 37.5 127.855469 L 12.5 135.351562 C 12.5 135.328125 12.5 135.277344 12.5 135.253906 Z M 52.585938 161.375 L 154.296875 130.859375 L 212.5 113.402344 L 212.5 125.339844 L 55.175781 172.535156 C 54.175781 168.871094 53.320312 165.136719 52.585938 161.375 Z M 250 89.109375 L 225 96.605469 L 225 84.644531 L 250 77.148438 Z M 250 102.148438 L 250 114.109375 L 225 121.605469 L 225 109.644531 Z M 212.5 88.402344 L 212.5 100.339844 L 50.855469 148.851562 C 50.464844 144.96875 50.21875 141.0625 50.121094 137.109375 Z M 212.5 75.339844 L 50 124.097656 L 50 79.394531 L 131.46875 50.316406 L 212.5 73.460938 Z M 13.011719 148.242188 L 37.742188 140.820312 C 37.914062 144.75 38.207031 148.632812 38.648438 152.515625 L 13.988281 159.910156 C 13.917969 159.351562 13.867188 158.789062 13.820312 158.226562 C 13.476562 155.003906 13.207031 151.734375 13.011719 148.242188 Z M 15.894531 173.363281 C 15.84375 173.046875 15.796875 172.730469 15.746094 172.4375 L 40.578125 164.988281 C 41.308594 168.75 42.210938 172.460938 43.214844 176.148438 L 18.015625 183.691406 C 17.1875 180.125 16.503906 176.707031 15.894531 173.363281 Z M 143.75 237.5 C 143.75 244.140625 146.363281 250.171875 150.609375 254.636719 C 148.289062 256.324219 146.019531 258.082031 143.601562 259.617188 L 131.25 267.578125 L 118.894531 259.617188 C 90.648438 241.480469 69.945312 214.964844 58.9375 184.472656 L 212.328125 138.453125 C 211.449219 164.722656 203.757812 190.136719 189.890625 212.5 L 168.75 212.5 C 154.957031 212.5 143.75 223.707031 143.75 237.5 Z M 233.472656 194.285156 L 240.769531 212.5 L 204.46875 212.5 C 217.722656 188.695312 224.753906 162.035156 224.949219 134.667969 L 250 127.148438 L 250 135.253906 C 250 136.570312 249.949219 137.914062 249.925781 139.257812 C 239.085938 143.140625 231.25 153.441406 231.25 165.625 L 231.25 182.691406 C 231.25 186.667969 232.007812 190.574219 233.472656 194.285156 Z M 368.75 225 L 332.273438 225 L 298.484375 213.746094 L 287.5 186.304688 L 287.5 165.625 C 287.5 151.171875 276.488281 139.378906 262.449219 137.816406 C 262.476562 136.960938 262.5 136.109375 262.5 135.253906 L 262.5 43.75 C 262.5 40.992188 260.691406 38.550781 258.03125 37.769531 L 133.03125 0.269531 C 131.882812 -0.0976562 130.613281 -0.0976562 129.46875 0.269531 L 4.445312 37.769531 C 1.808594 38.550781 0 40.992188 0 43.75 L 0 135.253906 C 0 138.132812 0.195312 141.015625 0.292969 143.894531 C 0.292969 143.894531 0.292969 143.921875 0.292969 143.921875 C 0.464844 148.144531 0.707031 152.34375 1.074219 156.492188 C 1.125 157.226562 1.222656 157.886719 1.292969 158.59375 C 9.105469 237.621094 56.25 306.980469 128.441406 343.089844 C 129.34375 343.53125 130.296875 343.75 131.25 343.75 C 132.203125 343.75 133.152344 343.53125 134.058594 343.089844 C 143.382812 338.425781 152.441406 333.054688 161.058594 327.171875 C 163.011719 329.882812 165.476562 332.175781 168.359375 333.910156 C 164.671875 338.230469 162.5 343.871094 162.5 350 C 162.5 363.792969 173.707031 375 187.5 375 L 293.75 375 C 294.996094 375 296.191406 374.632812 297.214844 373.949219 L 333.128906 350 L 368.75 350 C 372.191406 350 375 347.191406 375 343.75 L 375 231.25 C 375 227.808594 372.191406 225 368.75 225 " fill-opacity="1" fill-rule="nonzero"/><path fill="rgb(58.81958%, 9.408569%, 20.779419%)" d="M 328.882812 80.25 L 320.335938 89.378906 C 323.167969 92.039062 325.878906 94.898438 328.367188 97.898438 L 337.988281 89.917969 C 335.15625 86.523438 332.105469 83.277344 328.882812 80.25 " fill-opacity="1" fill-rule="nonzero"/><path fill="rgb(58.81958%, 9.408569%, 20.779419%)" d="M 362.5 157.8125 C 362.5 155.347656 362.402344 152.929688 362.253906 150.535156 L 349.78125 151.367188 C 349.925781 153.492188 350 155.640625 350 157.8125 C 350 159.570312 349.949219 161.328125 349.851562 163.085938 L 362.328125 163.792969 C 362.449219 161.816406 362.5 159.8125 362.5 157.8125 " fill-opacity="1" fill-rule="nonzero"/><path fill="rgb(58.81958%, 9.408569%, 20.779419%)" d="M 318.652344 71.800781 C 315.085938 69.214844 311.328125 66.820312 307.445312 64.671875 L 301.414062 75.632812 C 304.832031 77.515625 308.152344 79.613281 311.304688 81.910156 L 318.652344 71.800781 " fill-opacity="1" fill-rule="nonzero"/><path fill="rgb(58.81958%, 9.408569%, 20.779419%)" d="M 360.765625 176.976562 L 348.484375 174.730469 C 347.777344 178.5625 346.824219 182.371094 345.652344 186.082031 L 357.566406 189.867188 C 358.910156 185.667969 359.984375 181.324219 360.765625 176.976562 " fill-opacity="1" fill-rule="nonzero"/><path fill="rgb(58.81958%, 9.408569%, 20.779419%)" d="M 295.433594 59.007812 C 291.332031 57.375 287.085938 56.003906 282.8125 54.90625 L 279.6875 66.992188 C 283.445312 67.96875 287.207031 69.1875 290.820312 70.628906 L 295.433594 59.007812 " fill-opacity="1" fill-rule="nonzero"/><path fill="rgb(58.81958%, 9.408569%, 20.779419%)" d="M 338.28125 203.222656 L 349.21875 209.277344 C 350.488281 206.980469 351.683594 204.636719 352.78125 202.222656 L 341.429688 196.996094 C 340.453125 199.121094 339.402344 201.195312 338.28125 203.222656 " fill-opacity="1" fill-rule="nonzero"/><path fill="rgb(58.81958%, 9.408569%, 20.779419%)" d="M 335.277344 107.347656 C 337.378906 110.644531 339.28125 114.085938 340.941406 117.578125 L 352.246094 112.207031 C 350.367188 108.25 348.191406 104.34375 345.800781 100.609375 L 335.277344 107.347656 " fill-opacity="1" fill-rule="nonzero"/><path fill="rgb(58.81958%, 9.408569%, 20.779419%)" d="M 345.3125 128.441406 C 346.53125 132.128906 347.507812 135.9375 348.265625 139.746094 L 360.523438 137.351562 C 359.691406 133.03125 358.570312 128.710938 357.175781 124.511719 L 345.3125 128.441406 " fill-opacity="1" fill-rule="nonzero"/><path fill="rgb(58.81958%, 9.408569%, 20.779419%)" d="M 281.152344 119.1875 C 296.410156 125.292969 306.25 139.84375 306.25 156.25 L 318.75 156.25 C 318.75 134.691406 305.808594 115.601562 285.816406 107.59375 L 283.570312 106.6875 L 278.929688 118.308594 L 281.152344 119.1875 " fill-opacity="1" fill-rule="nonzero"/></svg>